<svg width="30" height="30" viewBox="0 0 30 30" fill="none" xmlns="http://www.w3.org/2000/svg">
<g clip-path="url(#clip0_132_5531)">
<path d="M15.3668 7.5H10.4999C8.30003 7.5 7.20009 7.5 6.51667 8.18342C5.83325 8.86684 5.83325 9.96678 5.83325 12.1667V23.8333C5.83325 26.0332 5.83325 27.1332 6.51667 27.8166C7.20009 28.5 8.30003 28.5 10.4999 28.5H17.4999C19.6998 28.5 20.7998 28.5 21.4832 27.8166C22.1666 27.1332 22.1666 26.0332 22.1666 23.8333V14.2998C22.1666 13.823 22.1666 13.5845 22.0778 13.3701C21.989 13.1557 21.8204 12.9871 21.4832 12.6499L17.0167 8.18342C16.6795 7.84622 16.5109 7.67761 16.2965 7.58881C16.0821 7.5 15.8436 7.5 15.3668 7.5Z" stroke="#33363F" stroke-width="2"/>
<path d="M10.5 19.1667L17.5 19.1667" stroke="#33363F" stroke-width="2" stroke-linecap="round"/>
<path d="M10.5 23.8333L15.1667 23.8333" stroke="#33363F" stroke-width="2" stroke-linecap="round"/>
<path d="M15.1667 7.5V12.1667C15.1667 13.2666 15.1667 13.8166 15.5085 14.1583C15.8502 14.5 16.4001 14.5 17.5001 14.5H22.1667" stroke="#33363F" stroke-width="2"/>
</g>
<defs>
<clipPath id="clip0_132_5531">
<rect width="30" height="30" fill="white"/>
</clipPath>
</defs>
</svg>
