<svg width="30" height="30" viewBox="0 0 30 30" fill="none" xmlns="http://www.w3.org/2000/svg">
<g clip-path="url(#clip0_132_5564)">
<path d="M9 21V19.3333C9 18.4493 9.35119 17.6014 9.97631 16.9763C10.6014 16.3512 11.4493 16 12.3333 16H15.6667C16.5507 16 17.3986 16.3512 18.0237 16.9763C18.6488 17.6014 19 18.4493 19 19.3333V21M19.8333 6.10833C20.5503 6.29192 21.1859 6.70892 21.6397 7.29359C22.0935 7.87827 22.3399 8.59736 22.3399 9.3375C22.3399 10.0776 22.0935 10.7967 21.6397 11.3814C21.1859 11.9661 20.5503 12.3831 19.8333 12.5667M24 21V19.3333C23.9958 18.5976 23.7483 17.884 23.2961 17.3037C22.8439 16.7233 22.2124 16.3089 21.5 16.125M10.6667 9.33333C10.6667 10.2174 11.0179 11.0652 11.643 11.6904C12.2681 12.3155 13.1159 12.6667 14 12.6667C14.8841 12.6667 15.7319 12.3155 16.357 11.6904C16.9821 11.0652 17.3333 10.2174 17.3333 9.33333C17.3333 8.44928 16.9821 7.60143 16.357 6.97631C15.7319 6.35119 14.8841 6 14 6C13.1159 6 12.2681 6.35119 11.643 6.97631C11.0179 7.60143 10.6667 8.44928 10.6667 9.33333Z" stroke="#111111" stroke-width="1.66667" stroke-linecap="round" stroke-linejoin="round"/>
</g>
<defs>
<clipPath id="clip0_132_5564">
<rect width="15" height="15" fill="white" transform="translate(9 6)"/>
</clipPath>
</defs>
</svg>
