<svg width="30" height="30" viewBox="0 0 30 30" fill="none" xmlns="http://www.w3.org/2000/svg">
<path d="M5 6.25C5 5.91848 5.1317 5.60054 5.36612 5.36612C5.60054 5.1317 5.91848 5 6.25 5H11.25C11.5815 5 11.8995 5.1317 12.1339 5.36612C12.3683 5.60054 12.5 5.91848 12.5 6.25V12.5C12.5 12.8315 12.3683 13.1495 12.1339 13.3839C11.8995 13.6183 11.5815 13.75 11.25 13.75H6.25C5.91848 13.75 5.60054 13.6183 5.36612 13.3839C5.1317 13.1495 5 12.8315 5 12.5V6.25ZM17.5 6.25C17.5 5.91848 17.6317 5.60054 17.8661 5.36612C18.1005 5.1317 18.4185 5 18.75 5H23.75C24.0815 5 24.3995 5.1317 24.6339 5.36612C24.8683 5.60054 25 5.91848 25 6.25V8.75C25 9.08152 24.8683 9.39946 24.6339 9.63388C24.3995 9.8683 24.0815 10 23.75 10H18.75C18.4185 10 18.1005 9.8683 17.8661 9.63388C17.6317 9.39946 17.5 9.08152 17.5 8.75V6.25ZM5 20C5 19.6685 5.1317 19.3505 5.36612 19.1161C5.60054 18.8817 5.91848 18.75 6.25 18.75H11.25C11.5815 18.75 11.8995 18.8817 12.1339 19.1161C12.3683 19.3505 12.5 19.6685 12.5 20V23.75C12.5 24.0815 12.3683 24.3995 12.1339 24.6339C11.8995 24.8683 11.5815 25 11.25 25H6.25C5.91848 25 5.60054 24.8683 5.36612 24.6339C5.1317 24.3995 5 24.0815 5 23.75V20ZM17.5 16.25C17.5 15.9185 17.6317 15.6005 17.8661 15.3661C18.1005 15.1317 18.4185 15 18.75 15H23.75C24.0815 15 24.3995 15.1317 24.6339 15.3661C24.8683 15.6005 25 15.9185 25 16.25V23.75C25 24.0815 24.8683 24.3995 24.6339 24.6339C24.3995 24.8683 24.0815 25 23.75 25H18.75C18.4185 25 18.1005 24.8683 17.8661 24.6339C17.6317 24.3995 17.5 24.0815 17.5 23.75V16.25Z" stroke="#222222" stroke-width="2"/>
</svg>
