<svg width="30" height="30" viewBox="0 0 30 30" fill="none" xmlns="http://www.w3.org/2000/svg">
<circle cx="15" cy="11" r="2.5" stroke="#222222" stroke-linecap="round"/>
<path d="M16.7679 9.5C16.9657 9.15743 17.2607 8.88121 17.6154 8.70625C17.9702 8.5313 18.3689 8.46548 18.7611 8.51711C19.1532 8.56874 19.5213 8.73551 19.8187 8.99632C20.1161 9.25713 20.3295 9.60028 20.4319 9.98236C20.5342 10.3644 20.521 10.7683 20.3939 11.1429C20.2667 11.5174 20.0313 11.8459 19.7175 12.0867C19.4037 12.3275 19.0255 12.4698 18.6308 12.4957C18.2361 12.5216 17.8426 12.4298 17.5 12.2321" stroke="#222222"/>
<path d="M13.2321 9.5C13.0343 9.15743 12.7393 8.88121 12.3846 8.70625C12.0298 8.5313 11.6311 8.46548 11.2389 8.51711C10.8468 8.56874 10.4787 8.73551 10.1813 8.99632C9.88391 9.25713 9.67053 9.60028 9.56815 9.98236C9.46577 10.3644 9.47899 10.7683 9.60614 11.1429C9.73329 11.5174 9.96866 11.8459 10.2825 12.0867C10.5963 12.3275 10.9745 12.4698 11.3692 12.4957C11.7639 12.5216 12.1574 12.4298 12.5 12.2321" stroke="#222222"/>
<path d="M15 15.5C19.0802 15.5 20.1335 18.8022 20.4054 20.507C20.4924 21.0524 20.0523 21.5 19.5 21.5H10.5C9.94771 21.5 9.50763 21.0524 9.59461 20.507C9.86649 18.8022 10.9198 15.5 15 15.5Z" stroke="#222222" stroke-linecap="round"/>
<path d="M22.2966 18.4162L21.8116 18.5377L22.2966 18.4162ZM16.0872 15.5859L15.7179 15.2488L15.0975 15.9283L16.0052 16.0791L16.0872 15.5859ZM20.1814 19.5L19.7011 19.639L19.8055 20H20.1814V19.5ZM18.5001 15C19.5278 15 20.2496 15.5027 20.7784 16.2069C21.3178 16.9253 21.6345 17.8306 21.8116 18.5377L22.7816 18.2948C22.5905 17.5315 22.2329 16.4787 21.5781 15.6065C20.9126 14.7203 19.9203 14 18.5001 14V15ZM16.4564 15.923C16.9568 15.375 17.6107 15 18.5001 15V14C17.2828 14 16.3736 14.5306 15.7179 15.2488L16.4564 15.923ZM16.0052 16.0791C18.3057 16.4614 19.279 18.1801 19.7011 19.639L20.6617 19.361C20.1906 17.7326 19.019 15.5663 16.1691 15.0927L16.0052 16.0791ZM21.3951 19H20.1814V20H21.3951V19ZM21.8116 18.5377C21.8654 18.7526 21.7076 19 21.3951 19V20C22.2658 20 23.0153 19.2277 22.7816 18.2948L21.8116 18.5377Z" fill="#222222"/>
<path d="M13.913 15.5859L13.995 16.0791L14.9027 15.9283L14.2823 15.2488L13.913 15.5859ZM7.70355 18.4162L8.18857 18.5377L7.70355 18.4162ZM9.8188 19.5V20H10.1947L10.2991 19.639L9.8188 19.5ZM11.5001 15C12.3894 15 13.0434 15.375 13.5438 15.923L14.2823 15.2488C13.6266 14.5306 12.7173 14 11.5001 14V15ZM8.18857 18.5377C8.36566 17.8306 8.6824 16.9253 9.22179 16.2069C9.7506 15.5027 10.4724 15 11.5001 15V14C10.0799 14 9.08755 14.7203 8.42211 15.6065C7.76725 16.4787 7.40968 17.5315 7.21853 18.2948L8.18857 18.5377ZM8.6051 19C8.29259 19 8.13477 18.7526 8.18857 18.5377L7.21853 18.2948C6.9849 19.2277 7.73436 20 8.6051 20V19ZM9.8188 19H8.6051V20H9.8188V19ZM10.2991 19.639C10.7212 18.1801 11.6945 16.4614 13.995 16.0791L13.831 15.0927C10.9811 15.5663 9.80962 17.7326 9.3385 19.361L10.2991 19.639Z" fill="#222222"/>
</svg>
