<svg width="28" height="34" viewBox="0 0 28 34" fill="none" xmlns="http://www.w3.org/2000/svg">
<path d="M4.66634 28C4.02467 28 3.47556 27.731 3.01901 27.1929C2.56167 26.6539 2.33301 26.0063 2.33301 25.25V8.75C2.33301 7.99375 2.56167 7.34658 3.01901 6.8085C3.47556 6.2695 4.02467 6 4.66634 6H10.7038C11.015 6 11.3117 6.06875 11.594 6.20625C11.8756 6.34375 12.1233 6.53854 12.3372 6.79062L13.9997 8.75H23.333C23.9747 8.75 24.5242 9.0195 24.9815 9.5585C25.4381 10.0966 25.6663 10.7438 25.6663 11.5H6.99967C6.35801 11.5 5.8089 11.769 5.35234 12.3071C4.89501 12.8461 4.66634 13.4938 4.66634 14.25V25.25L6.97051 16.2094C7.12606 15.6135 7.41306 15.1378 7.83151 14.7821C8.24917 14.4274 8.71079 14.25 9.21634 14.25H24.2663C25.0636 14.25 25.6908 14.6222 26.1482 15.3665C26.6047 16.1118 26.7261 16.9198 26.5122 17.7906L24.4122 26.0406C24.2566 26.6365 23.97 27.1122 23.5523 27.4679C23.1339 27.8226 22.6719 28 22.1663 28H4.66634Z" fill="#7B95F3"/>
</svg>
