<svg width="30" height="30" viewBox="0 0 30 30" fill="none" xmlns="http://www.w3.org/2000/svg">
<path fill-rule="evenodd" clip-rule="evenodd" d="M15 26.25C8.7868 26.25 3.75 21.2132 3.75 15C3.75 8.7868 8.7868 3.75 15 3.75C21.2132 3.75 26.25 8.7868 26.25 15C26.25 21.2132 21.2132 26.25 15 26.25ZM15 9C14.4477 9 14 9.44772 14 10C14 10.5523 14.4477 11 15 11H15.0125C15.5648 11 16.0125 10.5523 16.0125 10C16.0125 9.44772 15.5648 9 15.0125 9H15ZM13.125 14C12.5727 14 12.125 14.4477 12.125 15C12.125 15.5523 12.5727 16 13.125 16H14V20C14 20.5523 14.4477 21 15 21H17.5C18.0523 21 18.5 20.5523 18.5 20C18.5 19.4477 18.0523 19 17.5 19H16V15C16 14.4477 15.5523 14 15 14H13.125Z" fill="#5D5FEF"/>
</svg>
