<svg width="30" height="30" viewBox="0 0 30 30" fill="none" xmlns="http://www.w3.org/2000/svg">
<path fill-rule="evenodd" clip-rule="evenodd" d="M10.0864 16.0691L8.384 14.7072C8.13517 15.4254 8 16.1967 8 16.9996C8 20.8656 11.134 23.9996 15 23.9996C18.866 23.9996 22 20.8656 22 16.9996C22 16.1967 21.8648 15.4254 21.616 14.7072L19.9136 16.0691C19.9703 16.3706 20 16.6816 20 16.9996C20 19.761 17.7614 21.9996 15 21.9996C12.2386 21.9996 10 19.761 10 16.9996C10 16.6816 10.0297 16.3706 10.0864 16.0691Z" fill="#222222"/>
<path d="M15 16L14.3753 16.7809L15 17.2806L15.6247 16.7809L15 16ZM16 7C16 6.44772 15.5523 6 15 6C14.4477 6 14 6.44771 14 7L16 7ZM9.37531 12.7809L14.3753 16.7809L15.6247 15.2191L10.6247 11.2191L9.37531 12.7809ZM15.6247 16.7809L20.6247 12.7809L19.3753 11.2191L14.3753 15.2191L15.6247 16.7809ZM16 16L16 7L14 7L14 16L16 16Z" fill="#222222"/>
</svg>
