<svg width="28" height="33" viewBox="0 0 28 33" fill="none" xmlns="http://www.w3.org/2000/svg">
<path d="M4.66665 27.5C4.02498 27.5 3.47587 27.231 3.01931 26.6929C2.56198 26.1539 2.33331 25.5063 2.33331 24.75V8.25C2.33331 7.49375 2.56198 6.84658 3.01931 6.3085C3.47587 5.7695 4.02498 5.5 4.66665 5.5H10.7041C11.0153 5.5 11.312 5.56875 11.5943 5.70625C11.8759 5.84375 12.1236 6.03854 12.3375 6.29062L14 8.25H23.3333C23.975 8.25 24.5245 8.5195 24.9818 9.0585C25.4384 9.59658 25.6666 10.2438 25.6666 11H6.99998C6.35831 11 5.8092 11.269 5.35265 11.8071C4.89531 12.3461 4.66665 12.9938 4.66665 13.75V24.75L6.97081 15.7094C7.12637 15.1135 7.41337 14.6378 7.83181 14.2821C8.24948 13.9274 8.71109 13.75 9.21665 13.75H24.2666C25.0639 13.75 25.6911 14.1222 26.1485 14.8665C26.605 15.6118 26.7264 16.4198 26.5125 17.2906L24.4125 25.5406C24.2569 26.1365 23.9703 26.6122 23.5526 26.9679C23.1342 27.3226 22.6722 27.5 22.1666 27.5H4.66665Z" fill="#222222" fill-opacity="0.8"/>
</svg>
