<svg width="30" height="30" viewBox="0 0 30 30" fill="none" xmlns="http://www.w3.org/2000/svg">
<path d="M15 18.75L18.75 15M18.75 15L15 11.25M18.75 15H5M11.25 9.06125V9C11.25 7.6 11.25 6.9 11.5225 6.365C11.7625 5.89375 12.1438 5.5125 12.615 5.2725C13.15 5 13.85 5 15.25 5H21C22.4 5 23.1 5 23.6337 5.2725C24.105 5.5125 24.4875 5.89375 24.7275 6.365C25 6.89875 25 7.59875 25 8.99625V21.005C25 22.4025 25 23.1013 24.7275 23.635C24.4874 24.1055 24.1045 24.4879 23.6337 24.7275C23.1 25 22.4012 25 21.0037 25H15.2462C13.8487 25 13.1487 25 12.615 24.7275C12.1446 24.4878 11.7622 24.1054 11.5225 23.635C11.25 23.1 11.25 22.4 11.25 21V20.9375" stroke="black" stroke-width="2" stroke-linecap="round" stroke-linejoin="round"/>
</svg>
