<svg width="30" height="30" viewBox="0 0 30 30" fill="none" xmlns="http://www.w3.org/2000/svg">
<g clip-path="url(#clip0_132_5538)">
<path d="M28 16.3613V18.5H26.75V16.8887L25.6855 15.8145L25.7148 15.7852C25.4544 15.9284 25.1647 16 24.8457 16C24.5592 16 24.2956 15.9414 24.0547 15.8242L23 16.8887V18.5H21.75V16.3613L23.166 14.9551L23.1367 14.8867L20.6855 9.39844L16.7012 13.5098C16.7142 13.6139 16.724 13.7148 16.7305 13.8125C16.737 13.9102 16.7435 14.0143 16.75 14.125V22.25H18V23.5H8V22.25H9.25V14.125C9.25 13.6302 9.34115 13.1647 9.52344 12.7285C9.70573 12.2923 9.95312 11.9049 10.2656 11.5664C10.5781 11.2279 10.9492 10.9544 11.3789 10.7461C11.8086 10.5378 12.2708 10.4173 12.7656 10.3848L18.7031 4.26172C18.9375 4.01432 19.2109 3.82552 19.5234 3.69531C19.8359 3.5651 20.1615 3.5 20.5 3.5C20.7279 3.5 20.9557 3.53255 21.1836 3.59766C21.4115 3.66276 21.6296 3.76042 21.8379 3.89062C22.0462 4.02083 22.2318 4.17057 22.3945 4.33984C22.5573 4.50911 22.6875 4.70443 22.7852 4.92578L26.5352 13.3047C26.5938 13.4349 26.6361 13.5684 26.6621 13.7051C26.6882 13.8418 26.7012 13.9785 26.7012 14.1152C26.7012 14.2715 26.6849 14.4245 26.6523 14.5742C26.6198 14.724 26.5645 14.8704 26.4863 15.0137L26.5645 14.9355L28 16.3613ZM15.5 22.25V14.125C15.5 13.7799 15.4349 13.4577 15.3047 13.1582C15.1745 12.8587 14.9954 12.5918 14.7676 12.3574C14.5397 12.123 14.276 11.944 13.9766 11.8203C13.6771 11.6966 13.3516 11.6315 13 11.625C12.6549 11.625 12.3327 11.6901 12.0332 11.8203C11.7337 11.9505 11.4668 12.1296 11.2324 12.3574C10.998 12.5853 10.819 12.849 10.6953 13.1484C10.5716 13.4479 10.5065 13.7734 10.5 14.125V22.25H15.5ZM14.2891 10.5996C14.6927 10.7493 15.0605 10.9609 15.3926 11.2344C15.7246 11.5078 16.0013 11.8301 16.2227 12.2012L21.3984 6.86914C21.6328 6.62174 21.75 6.33203 21.75 6C21.75 5.82422 21.7174 5.66146 21.6523 5.51172C21.5872 5.36198 21.4993 5.23177 21.3887 5.12109C21.278 5.01042 21.1445 4.91927 20.9883 4.84766C20.832 4.77604 20.6693 4.74349 20.5 4.75C20.1419 4.75 19.8424 4.87695 19.6016 5.13086L14.2891 10.5996ZM22.541 7.43555C22.4238 7.62435 22.2806 7.79688 22.1113 7.95312C21.9421 8.10938 21.7793 8.26888 21.623 8.43164L23.5469 12.7383L24.6895 12.25L22.541 7.43555ZM24.8457 14.75C25.0345 14.75 25.1842 14.6882 25.2949 14.5645C25.4056 14.4408 25.4609 14.291 25.4609 14.1152C25.4609 13.985 25.4316 13.8613 25.373 13.7441C25.3145 13.627 25.2559 13.5098 25.1973 13.3926L24.0547 13.8809C24.0938 13.9785 24.1328 14.0794 24.1719 14.1836C24.2109 14.2878 24.2598 14.3822 24.3184 14.4668C24.377 14.5514 24.4453 14.6198 24.5234 14.6719C24.6016 14.724 24.709 14.75 24.8457 14.75ZM13 13.5C13.1758 13.5 13.3385 13.5326 13.4883 13.5977C13.638 13.6628 13.7682 13.7507 13.8789 13.8613C13.9896 13.972 14.0807 14.1055 14.1523 14.2617C14.224 14.418 14.2565 14.5807 14.25 14.75C14.25 14.9258 14.2174 15.0885 14.1523 15.2383C14.0872 15.388 13.9993 15.5182 13.8887 15.6289C13.778 15.7396 13.6445 15.8307 13.4883 15.9023C13.332 15.974 13.1693 16.0065 13 16C12.8242 16 12.6615 15.9674 12.5117 15.9023C12.362 15.8372 12.2318 15.7493 12.1211 15.6387C12.0104 15.528 11.9193 15.3945 11.8477 15.2383C11.776 15.082 11.7435 14.9193 11.75 14.75C11.75 14.5742 11.7826 14.4115 11.8477 14.2617C11.9128 14.112 12.0007 13.9818 12.1113 13.8711C12.222 13.7604 12.3555 13.6693 12.5117 13.5977C12.668 13.526 12.8307 13.4935 13 13.5Z" fill="#111111"/>
</g>
<defs>
<clipPath id="clip0_132_5538">
<rect width="20" height="20" fill="white" transform="translate(8 3.5)"/>
</clipPath>
</defs>
</svg>
