<svg width="19" height="21" viewBox="0 0 19 21" fill="none" xmlns="http://www.w3.org/2000/svg">
<path d="M3.25 6.83325C3.25 5.17565 3.90848 3.58594 5.08058 2.41383C6.25269 1.24173 7.8424 0.583252 9.5 0.583252C11.1576 0.583252 12.7473 1.24173 13.9194 2.41383C15.0915 3.58594 15.75 5.17565 15.75 6.83325V9.87179C15.75 10.6041 15.9875 11.3166 16.4271 11.903L18.5625 14.7499C18.7366 14.9821 18.8426 15.2581 18.8687 15.5471C18.8947 15.8361 18.8398 16.1266 18.71 16.3862C18.5803 16.6457 18.3808 16.864 18.134 17.0166C17.8871 17.1691 17.6027 17.2499 17.3125 17.2499H1.6875C1.39733 17.2499 1.11288 17.1691 0.866046 17.0166C0.619208 16.864 0.419728 16.6457 0.289958 16.3862C0.160188 16.1266 0.105255 15.8361 0.131314 15.5471C0.157374 15.2581 0.263396 14.9821 0.437501 14.7499L2.57292 11.903C3.01242 11.317 3.25 10.6043 3.25 9.87179V6.83325ZM9.5 20.8958C8.71479 20.8956 7.95058 20.6421 7.32094 20.173C6.69131 19.7038 6.22988 19.044 6.00521 18.2916H12.9948C12.7701 19.044 12.3087 19.7038 11.6791 20.173C11.0494 20.6421 10.2852 20.8956 9.5 20.8958Z" fill="#222222"/>
</svg>
