<svg width="30" height="30" viewBox="0 0 30 30" fill="none" xmlns="http://www.w3.org/2000/svg">
<path d="M24 15H21.0704C20.5464 15 20.2844 15 20.0633 15.1183C19.8422 15.2367 19.6969 15.4546 19.4063 15.8906L18.5937 17.1094C18.3031 17.5454 18.1578 17.7633 17.9367 17.8817C17.7156 18 17.4536 18 16.9296 18H13.0704C12.5464 18 12.2844 18 12.0633 17.8817C11.8422 17.7633 11.6969 17.5454 11.4063 17.1094L10.5937 15.8906C10.3031 15.4546 10.1578 15.2367 9.93667 15.1183C9.71558 15 9.4536 15 8.92963 15H6" stroke="#33363F" stroke-width="2"/>
<path d="M8 12L6.29289 13.7071C6.10536 13.8946 6 14.149 6 14.4142V20C6 21.1046 6.89543 22 8 22H22C23.1046 22 24 21.1046 24 20V14.4142C24 14.149 23.8946 13.8946 23.7071 13.7071L22 12" stroke="#33363F" stroke-width="2" stroke-linecap="round"/>
<path d="M11.5 10L15 13M15 13L18.5 10M15 13L15 6" stroke="#33363F" stroke-width="2"/>
</svg>
