<svg width="30" height="30" viewBox="0 0 30 30" fill="none" xmlns="http://www.w3.org/2000/svg">
<g clip-path="url(#clip0_132_5545)">
<path d="M22 9.83317V19.8332H12V9.83317H22ZM22 8.1665H12C11.0833 8.1665 10.3333 8.9165 10.3333 9.83317V19.8332C10.3333 20.7498 11.0833 21.4998 12 21.4998H22C22.9167 21.4998 23.6667 20.7498 23.6667 19.8332V9.83317C23.6667 8.9165 22.9167 8.1665 22 8.1665ZM15.725 18.1665L12.8333 15.2498L14 14.0748L15.725 15.8082L20 11.4998L21.1667 12.6748L15.725 18.1665ZM8.66667 11.4998H7V23.1665C7 24.0832 7.75 24.8332 8.66667 24.8332H20.3333V23.1665H8.66667V11.4998Z" fill="#111111"/>
</g>
<defs>
<clipPath id="clip0_132_5545">
<rect width="20" height="20" fill="white" transform="translate(7 8.1665)"/>
</clipPath>
</defs>
</svg>
