<svg width="30" height="30" viewBox="0 0 30 30" fill="none" xmlns="http://www.w3.org/2000/svg">
<g clip-path="url(#clip0_132_5518)">
<path d="M19.375 5.25C21.1306 5.25 22.0084 5.25 22.6389 5.67133C22.9119 5.85372 23.1463 6.0881 23.3287 6.36107C23.75 6.99163 23.75 7.86942 23.75 9.625V21.5C23.75 23.857 23.75 25.0355 23.0178 25.7678C22.2855 26.5 21.107 26.5 18.75 26.5H11.25C8.89298 26.5 7.71447 26.5 6.98223 25.7678C6.25 25.0355 6.25 23.857 6.25 21.5V9.625C6.25 7.86942 6.25 6.99163 6.67133 6.36107C6.85372 6.0881 7.0881 5.85372 7.36107 5.67133C7.99163 5.25 8.86942 5.25 10.625 5.25" stroke="#33363F" stroke-width="2"/>
<path d="M11.25 5.25C11.25 3.86929 12.3693 2.75 13.75 2.75H16.25C17.6307 2.75 18.75 3.86929 18.75 5.25C18.75 6.63071 17.6307 7.75 16.25 7.75H13.75C12.3693 7.75 11.25 6.63071 11.25 5.25Z" stroke="#33363F" stroke-width="2"/>
<path d="M11.25 14L18.75 14" stroke="#33363F" stroke-width="2" stroke-linecap="round"/>
<path d="M11.25 19L16.25 19" stroke="#33363F" stroke-width="2" stroke-linecap="round"/>
</g>
<defs>
<clipPath id="clip0_132_5518">
<rect width="30" height="30" fill="white"/>
</clipPath>
</defs>
</svg>
