<svg width="21" height="22" viewBox="0 0 21 22" fill="none" xmlns="http://www.w3.org/2000/svg">
<path d="M19.0939 11.211C19.0978 11.0704 19.0978 10.9298 19.0939 10.7892L20.5509 8.96886C20.6273 8.87328 20.6802 8.7611 20.7053 8.64134C20.7304 8.52159 20.727 8.39761 20.6954 8.2794C20.4561 7.3817 20.0989 6.51969 19.6329 5.71593C19.5719 5.61077 19.4871 5.52131 19.3854 5.45469C19.2836 5.38806 19.1678 5.3461 19.047 5.33214L16.7306 5.07432C16.6342 4.97276 16.5366 4.87511 16.4376 4.78136L16.1642 2.45909C16.1501 2.3382 16.108 2.22227 16.0412 2.12055C15.9744 2.01882 15.8847 1.9341 15.7794 1.87315C14.9757 1.40758 14.1136 1.05093 13.2159 0.812606C13.0977 0.781024 12.9737 0.777649 12.854 0.802753C12.7342 0.827857 12.622 0.880739 12.5265 0.957137L10.711 2.40636H10.2892L8.46886 0.952254C8.37328 0.875856 8.2611 0.822975 8.14134 0.79787C8.02159 0.772766 7.89761 0.776141 7.7794 0.807723C6.8817 1.04701 6.01969 1.40429 5.21593 1.87022C5.11077 1.93128 5.02131 2.01605 4.95469 2.11777C4.88806 2.21949 4.8461 2.33536 4.83214 2.45616L4.57432 4.77647C4.47276 4.87348 4.37511 4.97113 4.28136 5.06944L1.95909 5.33604C1.8382 5.35011 1.72227 5.39222 1.62055 5.45902C1.51882 5.52582 1.4341 5.61547 1.37315 5.72081C0.907671 6.52468 0.550725 7.38667 0.311629 8.28429C0.280181 8.40257 0.276964 8.52659 0.302239 8.64635C0.327513 8.76611 0.380572 8.87825 0.457137 8.97374L1.90636 10.7892V11.211L0.452254 13.0314C0.375856 13.1269 0.322975 13.2391 0.29787 13.3589C0.272766 13.4786 0.276141 13.6026 0.307723 13.7208C0.547007 14.6185 0.904288 15.4805 1.37022 16.2843C1.43128 16.3894 1.51605 16.4789 1.61777 16.5455C1.71949 16.6122 1.83536 16.6541 1.95616 16.6681L4.27257 16.9259C4.36957 17.0274 4.46723 17.1251 4.56554 17.2189L4.83604 19.5411C4.85011 19.662 4.89222 19.7779 4.95902 19.8797C5.02582 19.9814 5.11547 20.0661 5.22081 20.1271C6.02468 20.5925 6.88667 20.9495 7.78429 21.1886C7.90257 21.22 8.02659 21.2232 8.14635 21.198C8.26611 21.1727 8.37825 21.1196 8.47374 21.0431L10.2892 19.5939C10.4298 19.5978 10.5704 19.5978 10.711 19.5939L12.5314 21.0509C12.6269 21.1273 12.7391 21.1802 12.8589 21.2053C12.9786 21.2304 13.1026 21.227 13.2208 21.1954C14.1187 20.9566 14.9807 20.5993 15.7843 20.1329C15.8894 20.0719 15.9789 19.9871 16.0455 19.8854C16.1122 19.7836 16.1541 19.6678 16.1681 19.547L16.4259 17.2306C16.5274 17.1342 16.6251 17.0366 16.7189 16.9376L19.0411 16.6642C19.162 16.6501 19.2779 16.608 19.3797 16.5412C19.4814 16.4744 19.5661 16.3847 19.6271 16.2794C20.0925 15.4755 20.4495 14.6135 20.6886 13.7159C20.72 13.5976 20.7232 13.4736 20.698 13.3539C20.6727 13.2341 20.6196 13.122 20.5431 13.0265L19.0939 11.211ZM10.5001 14.9064C9.72752 14.9064 8.97229 14.6773 8.32991 14.248C7.68753 13.8188 7.18686 13.2087 6.8912 12.495C6.59555 11.7812 6.51819 10.9958 6.66891 10.238C6.81964 9.4803 7.19167 8.78427 7.73797 8.23797C8.28427 7.69167 8.9803 7.31964 9.73803 7.16891C10.4958 7.01819 11.2812 7.09555 11.995 7.3912C12.7087 7.68686 13.3188 8.18753 13.748 8.82991C14.1773 9.47229 14.4064 10.2275 14.4064 11.0001C14.4064 12.0361 13.9948 13.0297 13.2622 13.7622C12.5297 14.4948 11.5361 14.9064 10.5001 14.9064Z" fill="#222222"/>
</svg>
